<svg width="48" height="48" viewBox="0 0 48 48" fill="none" xmlns="http://www.w3.org/2000/svg">
<rect width="48" height="48" rx="8" fill="#FFF5EA"/>
<path d="M24 13.25C18.072 13.25 13.25 18.072 13.25 24C13.25 29.928 18.072 34.75 24 34.75C29.928 34.75 34.75 29.928 34.75 24C34.75 18.072 29.928 13.25 24 13.25ZM24 33.25C18.899 33.25 14.75 29.101 14.75 24C14.75 18.899 18.899 14.75 24 14.75C29.101 14.75 33.25 18.899 33.25 24C33.25 29.101 29.101 33.25 24 33.25ZM25.25 20.25C25.738 20.25 26.209 20.343 26.651 20.525C27.036 20.683 27.473 20.501 27.631 20.118C27.789 19.735 27.607 19.2959 27.224 19.1379C26.599 18.8799 25.935 18.749 25.25 18.749C23.018 18.749 21.119 20.155 20.361 22.124H19.062C18.648 22.124 18.312 22.46 18.312 22.874C18.312 23.288 18.648 23.624 19.062 23.624H20.037C20.028 23.75 19.999 23.871 19.999 23.999C19.999 24.127 20.028 24.248 20.037 24.374H19.062C18.648 24.374 18.312 24.71 18.312 25.124C18.312 25.538 18.648 25.874 19.062 25.874H20.361C21.119 27.843 23.017 29.249 25.25 29.249C25.927 29.249 26.589 29.121 27.217 28.869C27.601 28.715 27.788 28.2779 27.633 27.8929C27.479 27.5089 27.044 27.3211 26.657 27.4771C26.208 27.6581 25.734 27.749 25.249 27.749C23.867 27.749 22.671 26.989 22.021 25.874H24.687C25.101 25.874 25.437 25.538 25.437 25.124C25.437 24.71 25.101 24.374 24.687 24.374H21.537C21.524 24.249 21.499 24.127 21.499 23.999C21.499 23.871 21.524 23.749 21.537 23.624H24.687C25.101 23.624 25.437 23.288 25.437 22.874C25.437 22.46 25.101 22.124 24.687 22.124H22.021C22.672 21.01 23.868 20.25 25.25 20.25Z" fill="#FC9828"/>
</svg>
