<svg width="77" height="49" viewBox="0 0 77 49" fill="none" xmlns="http://www.w3.org/2000/svg">
<path d="M71.3482 0H5.51265C2.90252 0 0.786621 2.14416 0.786621 4.7891V44.2109C0.786621 46.8558 2.90252 49 5.51265 49H71.3482C73.9583 49 76.0742 46.8558 76.0742 44.2109V4.7891C76.0742 2.14416 73.9583 0 71.3482 0Z" fill="#2557D6"/>
<path d="M2.646 23.1016H6.12274L6.90722 21.1978H8.67947L9.46392 23.1016H16.3012V21.6394L16.9113 23.1016H20.4656L21.0757 21.6099V23.0918H38.0817V19.9612H38.411C38.6434 19.9612 38.7112 19.9612 38.7112 20.3734V23.0918H47.5048V22.3656C48.5188 22.8714 49.6386 23.1206 50.7685 23.0918H54.4679L55.2621 21.1879H57.015L57.7897 23.0918H64.8498V21.2763L65.9247 23.0918H71.6386V11.119H65.9829V12.5322L65.1887 11.119H59.378V12.5322L58.6517 11.119H50.8169C49.6443 11.0613 48.4759 11.3008 47.4176 11.8158V11.119H42.0137V11.8158C41.359 11.3057 40.542 11.0576 39.7184 11.119H20.0104L18.6836 14.2104L17.3181 11.119H11.1006V12.5322L10.413 11.119H5.10588L2.646 16.811V23.0918V23.1016ZM24.5912 21.3744H22.509V14.6422L19.6036 21.3744H17.8217L14.8679 14.6422V21.3744H10.7326L9.94814 19.4117H5.70631L4.91217 21.3744H2.7041L6.3455 12.7874H9.36707L12.8245 20.923V12.7874H16.1462L18.8095 18.6167L21.2597 12.7874H24.6493V21.3744H24.5912ZM9.18306 17.6746L7.78848 14.2496L6.4036 17.6746H9.18306ZM32.8908 21.3744H26.1116V12.7874H32.8908V14.5735H28.126V16.1241H32.7746V17.8807H28.126V19.5981H32.8908V21.3744ZM42.4688 15.0936C42.483 15.5763 42.354 16.0522 42.0985 16.4598C41.843 16.8674 41.4727 17.1881 41.0355 17.3802C41.4148 17.5334 41.7485 17.7836 42.004 18.1064C42.2892 18.5794 42.4086 19.1361 42.3429 19.6864V21.3744H40.2898V20.2949C40.3752 19.715 40.2624 19.1228 39.9702 18.6167C39.5432 18.3017 39.0103 18.1711 38.4885 18.2536H36.2998V21.3744H34.266V12.7874H38.9436C39.785 12.7048 40.6331 12.8469 41.4035 13.1996C41.7404 13.3795 42.0174 13.6561 42.2 13.9947C42.3825 14.3333 42.4626 14.719 42.4301 15.1034L42.4688 15.0936ZM39.8927 16.3694C39.5903 16.5118 39.2567 16.5726 38.9243 16.546H36.4547V14.6422H38.963C39.2935 14.616 39.6255 14.6698 39.9315 14.7992C40.0681 14.8685 40.1815 14.9773 40.2573 15.1117C40.3331 15.2462 40.368 15.4004 40.3576 15.5549C40.3695 15.7164 40.3369 15.8781 40.2634 16.022C40.1898 16.1658 40.0783 16.2861 39.9411 16.3694H39.8927ZM45.7035 21.3744H43.631V12.7874H45.7035V21.3744ZM69.8083 21.3744H66.9029L63.0291 14.9268V21.3744H58.8841L58.09 19.4117H53.8675L53.1024 21.3744H50.72C50.1597 21.4518 49.5893 21.3945 49.055 21.2071C48.5206 21.0197 48.0372 20.7075 47.644 20.2957C47.2508 19.8838 46.9588 19.384 46.7916 18.8366C46.6244 18.2892 46.5867 17.7096 46.6816 17.1447C46.6346 16.5396 46.7071 15.9311 46.8951 15.3548C47.083 14.7785 47.3824 14.246 47.7759 13.7884C48.1996 13.4231 48.6914 13.148 49.2221 12.9794C49.7529 12.8108 50.3117 12.7522 50.8653 12.807H52.8022V14.652H50.8653C50.5829 14.6149 50.2958 14.6415 50.0246 14.7297C49.7535 14.8179 49.5048 14.9656 49.2964 15.1623C48.8673 15.7199 48.6599 16.4202 48.7153 17.1251C48.6509 17.846 48.8509 18.5657 49.2771 19.1467C49.6721 19.4777 50.1806 19.6365 50.691 19.5883H51.6013L54.5067 12.8365H57.5573L61.005 20.9622V12.8365H64.1041L67.7551 18.8032V12.8168H69.8373V21.4038L69.8083 21.3744ZM57.4411 17.6746L56.0368 14.2496L54.6326 17.6746H57.4411Z" fill="white"/>
<path d="M74.1954 35.0842C73.8583 35.4811 73.4307 35.7886 72.9497 35.9802C72.4687 36.1717 71.9489 36.2414 71.4353 36.1833H67.5034V34.3383H71.3772C71.6687 34.3743 71.9628 34.2972 72.2004 34.1224C72.277 34.0514 72.338 33.9649 72.3797 33.8686C72.4214 33.7723 72.4428 33.6682 72.4425 33.563C72.4463 33.4549 72.4256 33.3474 72.382 33.2488C72.3383 33.1501 72.2729 33.0629 72.1907 32.9938C71.9826 32.8444 71.7274 32.778 71.4741 32.8074C69.5372 32.7387 67.1838 32.8663 67.1838 30.1478C67.1838 28.9015 67.9683 27.5865 70.0892 27.5865H74.147V25.8789H70.3797C69.4783 25.8352 68.5864 26.0826 67.8327 26.5855V25.8789H62.2641C61.3986 25.8322 60.5427 26.081 59.8333 26.5855V25.8789H49.926V26.5855C49.0923 26.1031 48.1451 25.8589 47.1853 25.8789H40.6385V26.5855C39.7729 26.033 38.7519 25.7848 37.7331 25.8789H30.3923L28.7072 27.714L27.1286 25.8789H16.1851V37.8713H26.9446L28.6781 36.0066L30.3051 37.8713H36.939V35.0547H37.5879C38.5524 35.116 39.5189 34.9722 40.4254 34.6327V37.8713H45.8972V34.7505H46.1587C46.4977 34.7505 46.5267 34.7505 46.5267 35.1038V37.8713H63.155C64.1341 37.9114 65.1014 37.644 65.9248 37.1058V37.8713H71.1932C72.215 37.9082 73.2325 37.7207 74.1761 37.3217V35.0842H74.1954ZM41.268 30.4717C41.268 32.8564 39.5054 33.3471 37.7235 33.3471H35.1861V36.2324H31.2348L28.7265 33.3864L26.1214 36.2324H18.0639V27.6355H26.2473L28.7556 30.4521L31.3413 27.6355H37.8397C39.457 27.6355 41.268 28.087 41.268 30.4619V30.4717ZM25.0851 34.3972H20.0782V32.6896H24.5428V30.933H20.0782V29.402H25.1433L27.3707 31.9045L25.0464 34.4266L25.0851 34.3972ZM33.1427 35.3786L29.9855 31.9143L33.1136 28.5286V35.3982L33.1427 35.3786ZM37.7331 31.561H35.099V29.402H37.7331C38.4692 29.402 38.9825 29.7062 38.9825 30.4521C38.9825 31.1979 38.5176 31.561 37.7331 31.561ZM51.5142 27.6355H58.2934V29.4118H53.5286V30.9722H58.1772V32.7289H53.5286V34.4364H58.2934V36.2226H51.5142V27.6355ZM48.8994 32.2382C49.2824 32.3846 49.6177 32.636 49.8679 32.9644C50.1488 33.4355 50.268 33.9876 50.2068 34.5346V36.2422H48.1924V35.1627C48.1924 34.6425 48.2409 33.8771 47.8632 33.4845C47.6535 33.3209 47.4131 33.2025 47.1566 33.1367C46.9001 33.0708 46.633 33.059 46.3718 33.1018H44.1927V36.2422H42.1493V27.6355H46.8463C47.6833 27.5612 48.5254 27.6995 49.2965 28.0379C49.6369 28.215 49.9179 28.4904 50.1041 28.8292C50.2902 29.1681 50.3732 29.5552 50.3424 29.9418C50.3571 30.4258 50.2272 30.9031 49.9698 31.3111C49.7123 31.7191 49.3392 32.0388 48.8994 32.2284V32.2382ZM47.747 31.1489C47.4445 31.2912 47.1109 31.3521 46.7785 31.3255H44.309V29.3627H46.8172C47.1479 29.3334 47.4806 29.3874 47.7857 29.5198C47.9231 29.5934 48.0365 29.7058 48.1121 29.8434C48.1877 29.981 48.2224 30.1379 48.2118 30.2951C48.2193 30.4584 48.1837 30.6208 48.1089 30.7657C48.034 30.9105 47.9225 31.0326 47.7857 31.1194L47.747 31.1489ZM66.1476 31.6984C66.369 31.9429 66.5376 32.2315 66.6427 32.5459C66.7478 32.8602 66.7869 33.1932 66.7577 33.5238C66.7577 35.3688 65.6149 36.2324 63.5618 36.2324H59.6008V34.3874H63.5521C63.8465 34.422 64.1432 34.3451 64.385 34.1715C64.4615 34.1005 64.5226 34.014 64.5643 33.9177C64.606 33.8214 64.6274 33.7173 64.6271 33.6121C64.6288 33.5043 64.6071 33.3975 64.5636 33.2991C64.5201 33.2008 64.4558 33.1133 64.3753 33.0429C64.1631 32.8945 63.9053 32.8283 63.649 32.8564C61.7121 32.7878 59.3587 32.9153 59.3587 30.1969C59.3587 28.9506 60.1335 27.6355 62.2641 27.6355H66.3413V29.4609H62.6127C62.3321 29.4279 62.0482 29.4827 61.7992 29.6179C61.6935 29.6911 61.6094 29.7921 61.556 29.9099C61.5025 30.0278 61.4816 30.1582 61.4955 30.2872C61.5094 30.4161 61.5576 30.5389 61.635 30.6422C61.7124 30.7456 61.816 30.8257 61.9348 30.8741C62.192 30.9525 62.4606 30.9857 62.7289 30.9722H63.8233C64.656 30.8938 65.487 31.1394 66.1476 31.6592V31.6984ZM74.2245 29.402H70.5153C70.2316 29.3689 69.9446 29.4236 69.6921 29.559C69.5913 29.6247 69.5101 29.7169 69.4571 29.8259C69.4042 29.9348 69.3817 30.0563 69.3919 30.1773C69.3875 30.3183 69.4286 30.4569 69.509 30.572C69.5894 30.6871 69.7047 30.7725 69.8374 30.8152C70.0914 30.893 70.3567 30.9262 70.6218 30.9133H71.7259C72.5528 30.8329 73.3785 31.079 74.0308 31.6003C74.101 31.6639 74.1629 31.7365 74.2148 31.8162V29.402H74.2245Z" fill="white"/>
</svg>
