<svg width="17" height="17" viewBox="0 0 17 17" fill="none" xmlns="http://www.w3.org/2000/svg">
<g clip-path="url(#clip0_2874_4974)">
<path d="M12.1762 0.774414H5.1201C2.72389 0.774414 0.774414 2.72398 0.774414 5.12019V12.1763C0.774414 14.5726 2.72389 16.5221 5.1201 16.5221H12.1762C14.5726 16.5221 16.5221 14.5725 16.5221 12.1763V5.12019C16.5221 2.72398 14.5726 0.774414 12.1762 0.774414ZM15.1249 12.1763C15.1249 13.8022 13.8022 15.1248 12.1763 15.1248H5.1201C3.49431 15.1249 2.17162 13.8022 2.17162 12.1763V5.12019C2.17162 3.4944 3.49431 2.17162 5.1201 2.17162H12.1762C13.8021 2.17162 15.1248 3.4944 15.1248 5.12019V12.1763H15.1249Z" fill="white"/>
<path d="M8.6481 4.59082C6.41061 4.59082 4.59033 6.4111 4.59033 8.64859C4.59033 10.886 6.41061 12.7062 8.6481 12.7062C10.8856 12.7062 12.7059 10.886 12.7059 8.64859C12.7059 6.4111 10.8856 4.59082 8.6481 4.59082ZM8.6481 11.3089C7.18113 11.3089 5.98754 10.1155 5.98754 8.6485C5.98754 7.18143 7.18103 5.98793 8.6481 5.98793C10.1152 5.98793 11.3087 7.18143 11.3087 8.6485C11.3087 10.1155 10.1151 11.3089 8.6481 11.3089Z" fill="white"/>
<path d="M12.8762 3.40576C12.607 3.40576 12.3425 3.51474 12.1524 3.7057C11.9614 3.89572 11.8516 4.16025 11.8516 4.43038C11.8516 4.69967 11.9615 4.96411 12.1524 5.15507C12.3424 5.34509 12.607 5.455 12.8762 5.455C13.1463 5.455 13.4099 5.34509 13.6009 5.15507C13.7918 4.96411 13.9008 4.69958 13.9008 4.43038C13.9008 4.16025 13.7918 3.89572 13.6009 3.7057C13.4108 3.51474 13.1463 3.40576 12.8762 3.40576Z" fill="white"/>
</g>
<defs>
<clipPath id="clip0_2874_4974">
<rect width="15.7477" height="15.7477" fill="white" transform="translate(0.774414 0.774414)"/>
</clipPath>
</defs>
</svg>
