<svg width="21" height="14" viewBox="0 0 21 14" fill="none" xmlns="http://www.w3.org/2000/svg">
<path d="M20.5318 5.80443V13.1799H16.0976V6.2984C16.0976 4.5697 15.4563 3.38993 13.8512 3.38993C12.626 3.38993 11.8969 4.18501 11.5761 4.95411C11.4591 5.22906 11.429 5.61176 11.429 5.99664V13.1799H6.99335C6.99335 13.1799 7.05309 1.52487 6.99335 0.317315H11.4286V2.14054C11.4196 2.15418 11.4079 2.16888 11.3994 2.1821H11.4286V2.14054C12.0178 1.26536 13.0702 0.0151367 15.4257 0.0151367C18.3441 0.0150903 20.5318 1.85353 20.5318 5.80443ZM0.106934 13.1799H4.54092V0.317315H0.106934V13.1799Z" fill="white"/>
</svg>
