<svg width="11" height="14" viewBox="0 0 11 14" fill="none" xmlns="http://www.w3.org/2000/svg">
<path d="M4.70106 0C4.29663 0.0567511 3.89277 0.121108 3.51032 0.267959C1.57435 1.01157 0.408489 2.40754 0.0619125 4.47866C-0.118608 5.55576 0.116301 6.57845 0.51495 7.57189C0.954102 8.66771 1.56162 9.66641 2.24378 10.6212C3.05728 11.7598 3.96162 12.8193 4.94986 13.8063C5.04475 13.9011 5.11418 13.9982 5.18245 14C5.25304 14.0017 5.32305 13.9046 5.42083 13.8057C6.78631 12.4308 8.0135 10.9436 9.00868 9.27033C9.54966 8.36114 9.99807 7.41041 10.2347 6.36841C10.741 4.14108 9.73134 1.81896 7.76529 0.683939C7.13346 0.319444 6.45825 0.0941952 5.73501 0.0169668C5.71302 0.0146266 5.69161 0.00585063 5.6702 0C5.34735 0 5.02392 0 4.70106 0ZM7.54368 5.20355C7.52864 6.52755 6.54156 7.60114 5.18072 7.60465C3.90145 7.60816 2.8542 6.60653 2.83395 5.26264C2.8137 3.93572 3.8164 2.85862 5.17667 2.84809C6.46288 2.83814 7.50029 3.84328 7.54368 5.20355Z" fill="white"/>
</svg>
