<svg width="76" height="49" viewBox="0 0 76 49" fill="none" xmlns="http://www.w3.org/2000/svg">
<path d="M70.9498 0H5.11425C2.50412 0 0.388184 2.14416 0.388184 4.7891V44.2109C0.388184 46.8558 2.50412 49 5.11425 49H70.9498C73.5599 49 75.6758 46.8558 75.6758 44.2109V4.7891C75.6758 2.14416 73.5599 0 70.9498 0Z" fill="#E6E7E8"/>
<path d="M59.0806 40.9509C59.1255 40.9324 59.1737 40.923 59.2223 40.9233C59.2709 40.923 59.319 40.9324 59.364 40.9509C59.409 40.9694 59.4499 40.9967 59.4844 41.0313C59.5509 41.0993 59.5881 41.1909 59.5881 41.2865C59.5881 41.382 59.5509 41.4737 59.4844 41.5416C59.4501 41.5766 59.4093 41.6044 59.3643 41.6234C59.3193 41.6424 59.271 41.6521 59.2223 41.6521C59.1735 41.6521 59.1253 41.6424 59.0803 41.6234C59.0353 41.6044 58.9944 41.5766 58.9601 41.5416C58.8937 41.4737 58.8564 41.382 58.8564 41.2865C58.8564 41.1909 58.8937 41.0993 58.9601 41.0313C58.9946 40.9967 59.0356 40.9694 59.0806 40.9509Z" fill="black"/>
<path d="M19.2826 41.3746H18.5176V37.7632H19.2342V38.2048C19.5353 37.9449 19.8943 37.763 20.2801 37.6748C20.5175 37.6908 20.7487 37.7588 20.9576 37.874C21.1666 37.9892 21.3485 38.1489 21.4907 38.3422C21.6187 38.137 21.796 37.968 22.0061 37.8513C22.2162 37.7346 22.452 37.6739 22.6916 37.6748C23.0215 37.6621 23.345 37.7702 23.6028 37.9792C23.8606 38.1882 24.0356 38.4843 24.0958 38.8132V41.3746H23.3598V39.1273C23.358 39.0273 23.3353 38.9288 23.2932 38.8384C23.251 38.7479 23.1904 38.6676 23.1154 38.6026C23.0403 38.5377 22.9525 38.4896 22.8577 38.4617C22.763 38.4337 22.6634 38.4264 22.5657 38.4403C22.3571 38.4148 22.1468 38.472 21.9789 38.6001C21.811 38.7281 21.6985 38.9171 21.665 39.1273V41.3746H20.9V39.1174C20.8786 38.9395 20.7978 38.7743 20.6709 38.6493C20.5441 38.5243 20.3788 38.4471 20.2027 38.4305C19.3117 38.4305 19.2923 39.1567 19.2923 39.1567V41.4139L19.2826 41.3746Z" fill="black"/>
<path d="M42.4772 37.714C42.0913 37.8022 41.7324 37.984 41.4313 38.2439V37.8023H40.6855V41.3745H41.4506V39.1174C41.4506 39.1174 41.4506 38.3912 42.361 38.3912C42.5007 38.3887 42.6383 38.4261 42.758 38.4991L43.0098 37.7925C42.8472 37.7233 42.6729 37.6866 42.4965 37.6846L42.4772 37.714Z" fill="black"/>
<path d="M53.2267 37.714C52.8408 37.8022 52.4819 37.984 52.1807 38.2439V37.8023H51.4351V41.3745H52.1614V39.1174C52.1614 39.1174 52.1614 38.3912 53.0717 38.3912C53.2114 38.3887 53.349 38.4261 53.4688 38.4991L53.7206 37.7925C53.558 37.7233 53.3837 37.6866 53.2073 37.6846L53.2267 37.714Z" fill="black"/>
<path d="M26.5945 37.7043C26.3554 37.7132 26.1203 37.7697 25.9028 37.8707C25.6852 37.9717 25.4894 38.1152 25.3266 38.2929C25.1638 38.4707 25.0372 38.6792 24.9539 38.9065C24.8707 39.1339 24.8326 39.3757 24.8416 39.618C24.8232 40.1172 25.0002 40.6035 25.3339 40.9711C25.6677 41.3387 26.1312 41.5578 26.6236 41.5808C27.0529 41.5556 27.4618 41.3865 27.7857 41.0999V41.3747H28.5411V37.7632H27.7857V38.2146C27.4746 37.8797 27.0479 37.6793 26.5945 37.6553V37.7043ZM26.7398 38.4404C26.9783 38.4226 27.2166 38.4781 27.4236 38.5995C27.6306 38.7209 27.7968 38.9026 27.9005 39.121C28.0041 39.3394 28.0405 39.5844 28.0049 39.8241C27.9692 40.0638 27.8632 40.287 27.7006 40.4648C27.5381 40.6425 27.3264 40.7666 27.0933 40.8207C26.8602 40.8749 26.6164 40.8568 26.3936 40.7686C26.1708 40.6804 25.9794 40.5263 25.8442 40.3263C25.709 40.1264 25.6364 39.8898 25.6358 39.6475C25.6253 39.3393 25.7355 39.0395 25.9423 38.8133C26.1491 38.5872 26.4358 38.4531 26.7398 38.4404Z" fill="black"/>
<path d="M48.4915 37.7043C48.2524 37.7132 48.0173 37.7697 47.7997 37.8707C47.5822 37.9717 47.3864 38.1152 47.2236 38.2929C47.0608 38.4707 46.9341 38.6792 46.8509 38.9065C46.7677 39.1339 46.7295 39.3757 46.7386 39.618C46.7202 40.1172 46.8971 40.6035 47.2309 40.9711C47.5646 41.3387 48.0282 41.5578 48.5206 41.5808C48.9499 41.5556 49.3588 41.3865 49.6827 41.0999V41.3747H50.4381V37.7632H49.6827V38.2146C49.3716 37.8797 48.9448 37.6793 48.4915 37.6553V37.7043ZM48.6368 38.4404C48.8753 38.4226 49.1136 38.4781 49.3206 38.5995C49.5276 38.7209 49.6938 38.9026 49.7975 39.121C49.9011 39.3394 49.9375 39.5844 49.9018 39.8241C49.8662 40.0638 49.7602 40.287 49.5976 40.4648C49.435 40.6425 49.2234 40.7666 48.9903 40.8207C48.7572 40.8749 48.5133 40.8568 48.2905 40.7686C48.0678 40.6804 47.8763 40.5263 47.7412 40.3263C47.606 40.1264 47.5334 39.8898 47.5328 39.6475C47.5223 39.3393 47.6324 39.0395 47.8393 38.8133C48.0461 38.5872 48.3328 38.4531 48.6368 38.4404Z" fill="black"/>
<path d="M55.6966 37.7044C55.4575 37.7133 55.2224 37.7698 55.0048 37.8708C54.7872 37.9718 54.5915 38.1153 54.4287 38.293C54.2659 38.4708 54.1392 38.6793 54.056 38.9067C53.9728 39.134 53.9346 39.3758 53.9437 39.6181C53.9253 40.1173 54.1022 40.6036 54.436 40.9712C54.7697 41.3388 55.2332 41.5579 55.7257 41.5809C56.155 41.5558 56.5639 41.3866 56.8878 41.1V41.3748H57.6432V36.3403H56.8878V38.2246C56.5767 37.8896 56.1499 37.6892 55.6966 37.6652V37.7044ZM55.8419 38.4405C56.0804 38.4227 56.3187 38.4782 56.5257 38.5996C56.7327 38.721 56.8989 38.9027 57.0025 39.1211C57.1062 39.3396 57.1426 39.5845 57.1069 39.8242C57.0713 40.0639 56.9653 40.2871 56.8027 40.4649C56.6401 40.6426 56.4285 40.7667 56.1954 40.8209C55.9623 40.875 55.7184 40.8569 55.4956 40.7687C55.2728 40.6805 55.0814 40.5264 54.9463 40.3264C54.8111 40.1265 54.7385 39.8899 54.7378 39.6476C54.7273 39.3394 54.8375 39.0396 55.0444 38.8135C55.2512 38.5873 55.5379 38.4532 55.8419 38.4405Z" fill="black"/>
<path d="M30.8557 41.532C30.326 41.5041 29.8124 41.3385 29.3643 41.0511L29.6935 40.531C30.0604 40.7022 30.4534 40.8084 30.8557 40.845C31.1753 40.845 31.6982 40.7371 31.7079 40.423C31.7176 40.109 30.8169 39.9814 30.8169 39.9814C30.8169 39.9814 29.4805 39.9814 29.4805 38.843C29.4805 38.1364 30.1487 37.6948 31.0106 37.6948C31.5048 37.7668 31.985 37.9157 32.4343 38.1364L32.0565 38.7253C31.7054 38.579 31.3378 38.4769 30.9622 38.421C30.6426 38.421 30.2552 38.5682 30.2552 38.843C30.2552 39.6085 32.4827 38.7841 32.4827 40.3249C32.4827 41.3063 31.5723 41.5222 30.8557 41.5222V41.532Z" fill="black"/>
<path d="M33.7029 36.7622V37.8123H33.0347V38.5679H33.7029V40.3933C33.6941 40.5592 33.7204 40.7252 33.78 40.88C33.8396 41.0349 33.9312 41.175 34.0485 41.2912C34.1658 41.4073 34.3063 41.4967 34.4605 41.5534C34.6146 41.6101 34.779 41.6328 34.9425 41.62C35.3072 41.5776 35.6652 41.4886 36.0078 41.355L35.7076 40.5699C35.5379 40.7123 35.3272 40.7949 35.1072 40.8055C34.5067 40.8055 34.5261 40.4031 34.5261 40.4031V38.5876H35.7657V37.8319H34.5261V36.7622H33.7029Z" fill="black"/>
<path d="M38.2159 37.7438C37.7795 37.8425 37.3903 38.0913 37.1143 38.4477C36.8383 38.8042 36.6925 39.2464 36.7016 39.6994C36.7107 40.1524 36.8742 40.5883 37.1643 40.933C37.4545 41.2778 37.8534 41.5102 38.2934 41.5908C38.786 41.5241 39.2584 41.35 39.6782 41.0805L39.3296 40.4622C39.0227 40.68 38.6661 40.8151 38.2934 40.8548C38.1606 40.8642 38.0274 40.8458 37.9019 40.8007C37.7765 40.7557 37.6616 40.6849 37.5643 40.5928C37.4671 40.5007 37.3896 40.3893 37.3368 40.2655C37.2839 40.1417 37.2568 40.0082 37.2571 39.8734H39.8622C39.8622 39.8734 40.0559 37.7144 38.2256 37.7144L38.2159 37.7438ZM38.1094 38.4504H38.1965C38.314 38.4422 38.432 38.4589 38.5428 38.4992C38.6537 38.5396 38.7551 38.6028 38.8407 38.6849C38.9262 38.7669 38.994 38.8661 39.0398 38.9761C39.0856 39.086 39.1085 39.2044 39.1069 39.3238H37.2571C37.2531 39.2089 37.2724 39.0943 37.3137 38.9871C37.355 38.88 37.4175 38.7825 37.4973 38.7007C37.5771 38.6189 37.6725 38.5545 37.7778 38.5115C37.8831 38.4684 37.9959 38.4476 38.1094 38.4504Z" fill="black"/>
<path d="M45.9535 40.4525L46.3022 41.1591C45.9484 41.3791 45.545 41.5041 45.1303 41.5222C44.8759 41.53 44.6225 41.487 44.3846 41.3955C44.1466 41.3041 43.9287 41.166 43.7434 40.9892C43.5582 40.8124 43.4091 40.6003 43.3048 40.3651C43.2004 40.1299 43.1428 39.8761 43.1353 39.6183C43.1233 39.3609 43.1657 39.1038 43.2599 38.8643C43.3541 38.6249 43.4977 38.4087 43.6812 38.2302C43.8647 38.0517 44.0838 37.915 44.3237 37.8295C44.5636 37.7439 44.8188 37.7114 45.0722 37.7341C45.5328 37.7544 45.9802 37.8965 46.3699 38.1463L45.9826 38.8528C45.8652 38.713 45.7149 38.6056 45.5456 38.5404C45.3763 38.4752 45.1935 38.4544 45.0141 38.4799C44.7229 38.5068 44.4522 38.6431 44.2551 38.8618C44.058 39.0806 43.9487 39.3662 43.9487 39.6625C43.9487 39.9587 44.058 40.2443 44.2551 40.4631C44.4522 40.6819 44.7229 40.8181 45.0141 40.845C45.37 40.8304 45.7108 40.6957 45.9826 40.4623L45.9535 40.4525Z" fill="black"/>
<path d="M59.7366 28.2539V27.7632H59.6105L59.465 28.0968L59.3195 27.7632H59.1934V28.2539H59.2807V27.8908L59.4165 28.2048H59.5038L59.6396 27.8908V28.2637L59.7366 28.2539ZM58.9412 28.2539V27.8515H59.1061V27.773H58.6987V27.8515H58.8636V28.2539H58.9412Z" fill="#F79F1A"/>
<path d="M59.7641 21.0015C59.7584 23.6956 58.9644 26.3274 57.4826 28.5642C56.0007 30.801 53.8977 32.5423 51.4392 33.5679C48.9808 34.5935 46.2775 34.8573 43.6711 34.326C41.0647 33.7947 38.6723 32.4922 36.7965 30.583C34.9206 28.6739 33.6456 26.244 33.1325 23.6006C32.6195 20.9572 32.8915 18.2189 33.9142 15.7322C34.9369 13.2454 36.6644 11.1218 38.8781 9.6299C41.0919 8.13799 43.6925 7.3448 46.3511 7.35062C49.9196 7.35582 53.3401 8.79665 55.8607 11.3564C58.3813 13.9162 59.7958 17.3854 59.7932 21.0015H59.7641Z" fill="#F79F1A"/>
<path d="M43.1743 21.0015C43.1685 23.6943 42.3753 26.325 40.8948 28.5612C39.4142 30.7973 37.3129 32.5386 34.8561 33.5651C32.3994 34.5916 29.6975 34.8571 27.0919 34.3282C24.4863 33.7993 22.0939 32.4997 20.2169 30.5935C18.3399 28.6873 17.0625 26.2602 16.5462 23.6187C16.0299 20.9772 16.2978 18.2399 17.316 15.7526C18.3343 13.2653 20.0572 11.1396 22.2671 9.64418C24.477 8.14873 27.0748 7.35059 29.7321 7.35059C33.3007 7.35579 36.7212 8.79662 39.2418 11.3564C41.7624 13.9161 43.1768 17.3854 43.1743 21.0015Z" fill="#EA001B"/>
<path d="M38.0321 10.2554C36.4266 11.5356 35.1288 13.1683 34.2364 15.0306C33.344 16.8929 32.8804 18.9361 32.8804 21.0063C32.8804 23.0765 33.344 25.1198 34.2364 26.982C35.1288 28.8443 36.4266 30.4771 38.0321 31.7573C39.6376 30.4771 40.9355 28.8443 41.8279 26.982C42.7203 25.1198 43.1839 23.0765 43.1839 21.0063C43.1839 18.9361 42.7203 16.8929 41.8279 15.0306C40.9355 13.1683 39.6376 11.5356 38.0321 10.2554Z" fill="#FF5F01"/>
</svg>
