<svg width="14" height="12" viewBox="0 0 14 12" fill="none" xmlns="http://www.w3.org/2000/svg">
<path d="M0.2925 1.60342C2.21102 3.23075 5.57744 6.0937 6.56687 6.98638C6.69969 7.10686 6.84215 7.16811 6.99005 7.16811C7.13764 7.16811 7.27986 7.10744 7.41239 6.98753C8.40266 6.09398 11.7691 3.23075 13.6876 1.60342C13.8071 1.5023 13.8253 1.32456 13.7286 1.20093C13.505 0.915261 13.1717 0.751465 12.8145 0.751465H1.1656C0.808402 0.751465 0.47507 0.915261 0.251547 1.20096C0.154843 1.32456 0.173053 1.5023 0.2925 1.60342Z" fill="white"/>
<path d="M13.8098 2.48178C13.7066 2.43366 13.5851 2.45045 13.4992 2.52395C11.3716 4.33041 8.65621 6.64592 7.80187 7.41697C7.32236 7.85049 6.65687 7.85049 6.17624 7.41639C5.26561 6.59462 2.21628 3.99828 0.479481 2.52392C0.393015 2.45042 0.271302 2.4342 0.168919 2.48176C0.0659893 2.52964 0 2.63275 0 2.7464V10.0817C0 10.7252 0.522427 11.2484 1.1649 11.2484H12.8138C13.4563 11.2484 13.9787 10.7252 13.9787 10.0817V2.7464C13.9787 2.63275 13.9127 2.52936 13.8098 2.48178Z" fill="white"/>
</svg>
