<svg width="21" height="18" viewBox="0 0 21 18" fill="none" xmlns="http://www.w3.org/2000/svg">
<path d="M14.7765 14.2867L17.6669 16.0391L17.0457 13.1729C18.9323 11.9359 20.1115 10.1807 20.1115 8.23644C20.1115 4.48546 15.7342 1.44458 10.3331 1.44458C4.93196 1.44458 0.554688 4.48546 0.554688 8.23644C0.554688 11.9874 4.93196 15.0283 10.3331 15.0283C11.2304 15.0283 12.099 14.9424 12.9244 14.7849" stroke="white" stroke-miterlimit="10" stroke-linecap="square"/>
<path d="M5.51284 9.2729C6.08624 9.2729 6.55107 8.81012 6.55107 8.23924C6.55107 7.66836 6.08624 7.20557 5.51284 7.20557C4.93944 7.20557 4.47461 7.66836 4.47461 8.23924C4.47461 8.81012 4.93944 9.2729 5.51284 9.2729Z" stroke="white" stroke-miterlimit="10" stroke-linecap="square"/>
<path d="M10.3332 9.2729C10.9066 9.2729 11.3714 8.81012 11.3714 8.23924C11.3714 7.66836 10.9066 7.20557 10.3332 7.20557C9.75977 7.20557 9.29492 7.66836 9.29492 8.23924C9.29492 8.81012 9.75977 9.2729 10.3332 9.2729Z" stroke="white" stroke-miterlimit="10" stroke-linecap="square"/>
<path d="M15.1515 9.2729C15.7249 9.2729 16.1898 8.81012 16.1898 8.23924C16.1898 7.66836 15.7249 7.20557 15.1515 7.20557C14.5781 7.20557 14.1133 7.66836 14.1133 8.23924C14.1133 8.81012 14.5781 9.2729 15.1515 9.2729Z" stroke="white" stroke-miterlimit="10" stroke-linecap="square"/>
</svg>
