<svg width="76" height="49" viewBox="0 0 76 49" fill="none" xmlns="http://www.w3.org/2000/svg">
<path d="M70.5616 0H4.72606C2.11593 0 0 2.14416 0 4.7891V44.2109C0 46.8558 2.11593 49 4.72606 49H70.5616C73.1717 49 75.2876 46.8558 75.2876 44.2109V4.7891C75.2876 2.14416 73.1717 0 70.5616 0Z" fill="#E6E7E8"/>
<path d="M17.6549 17.1345C16.7701 16.5698 15.7361 16.2925 14.6915 16.3396H9.97508C9.89658 16.3313 9.81725 16.3399 9.74224 16.3648C9.66724 16.3897 9.59825 16.4303 9.53978 16.484C9.4813 16.5377 9.43464 16.6033 9.40285 16.6765C9.37106 16.7497 9.35484 16.8288 9.35527 16.9088L7.41836 29.1073C7.40755 29.166 7.40977 29.2264 7.42485 29.2841C7.43992 29.3418 7.46748 29.3954 7.50553 29.441C7.53909 29.4869 7.5829 29.5243 7.63339 29.5498C7.68387 29.5754 7.73961 29.5886 7.79605 29.5882H10.0332C10.1137 29.5993 10.1955 29.593 10.2734 29.5695C10.3512 29.5461 10.4232 29.5061 10.4846 29.4523C10.546 29.3984 10.5954 29.3319 10.6295 29.2572C10.6635 29.1825 10.6814 29.1013 10.682 29.019L11.2147 25.7314C11.2215 25.6556 11.2429 25.5819 11.2778 25.5146C11.3127 25.4472 11.3604 25.3875 11.4181 25.3388C11.5463 25.2337 11.7003 25.1659 11.8636 25.1425C12.0311 25.1286 12.1996 25.1286 12.3672 25.1425H12.9289H13.3453C14.071 25.1836 14.7974 25.0762 15.4813 24.8266C16.1651 24.5771 16.7924 24.1906 17.3256 23.6901C17.8243 23.1546 18.2095 22.5214 18.4576 21.8295C18.7058 21.1375 18.8116 20.4014 18.7686 19.6665C18.8077 19.1836 18.7262 18.6986 18.5315 18.2561C18.3369 17.8136 18.0354 17.4279 17.6549 17.1345ZM15.2628 20.7656C15.2546 21.0403 15.1806 21.3088 15.0474 21.5481C14.9141 21.7874 14.7255 21.9904 14.4978 22.1395C13.9403 22.3871 13.3332 22.498 12.7255 22.4634H11.757L12.2606 19.2641C12.2642 19.2167 12.2772 19.1706 12.2988 19.1284C12.3204 19.0863 12.3502 19.049 12.3864 19.0187C12.4225 18.9885 12.4643 18.966 12.5093 18.9525C12.5543 18.939 12.6014 18.9348 12.648 18.9403H13.2097C13.8012 18.8962 14.3934 19.0149 14.9239 19.2837C15.2402 19.552 15.3532 20.0459 15.2628 20.7656Z" fill="#003087"/>
<path d="M67.4526 16.3396H65.2735C65.2262 16.3342 65.1783 16.3387 65.1327 16.3528C65.0871 16.3668 65.0449 16.3902 65.0086 16.4215C64.9723 16.4528 64.9427 16.4912 64.9216 16.5345C64.9006 16.5779 64.8885 16.6251 64.8861 16.6733L62.9492 29.1073V29.1662C62.9512 29.2725 62.9927 29.3742 63.0654 29.4508C63.1009 29.4939 63.1454 29.5285 63.1956 29.5523C63.2458 29.576 63.3006 29.5883 63.356 29.5882H65.2929C65.3714 29.5965 65.4507 29.5879 65.5257 29.563C65.6007 29.5381 65.6697 29.4975 65.7282 29.4438C65.7867 29.3901 65.8334 29.3245 65.8652 29.2513C65.8969 29.1781 65.9131 29.099 65.9127 29.019L67.8496 16.7911C67.8432 16.4901 67.7108 16.3396 67.4526 16.3396Z" fill="#009CDE"/>
<path d="M41.0913 21.1484C41.0893 21.0421 41.0478 20.9405 40.9751 20.8638C40.944 20.823 40.9045 20.7895 40.8594 20.7658C40.8142 20.742 40.7644 20.7286 40.7136 20.7264H38.4377C38.3315 20.7251 38.2267 20.7515 38.1334 20.8031C38.0402 20.8546 37.9615 20.9296 37.9051 21.0208L34.777 25.6726L33.4793 21.1877C33.4451 21.0425 33.3611 20.9143 33.2422 20.8262C33.1233 20.7381 32.9773 20.6957 32.8304 20.7068H30.6223C30.5715 20.709 30.5217 20.7224 30.4766 20.7461C30.4314 20.7699 30.3919 20.8033 30.3608 20.8442C30.2881 20.9208 30.2466 21.0225 30.2446 21.1288C30.2446 21.1288 30.4383 21.7569 30.816 22.8953L32.0556 26.5754C32.5011 27.8839 32.7336 28.5807 32.7529 28.6657C31.855 29.794 31.0455 30.9917 30.3318 32.2478C30.3235 32.3012 30.3278 32.3559 30.3444 32.4074C30.3609 32.4588 30.3892 32.5056 30.427 32.5438C30.4647 32.5821 30.5109 32.6108 30.5617 32.6276C30.6124 32.6443 30.6664 32.6487 30.7192 32.6403H32.995C33.1013 32.6416 33.2061 32.6152 33.2993 32.5637C33.3926 32.5121 33.4712 32.4371 33.5277 32.3459L41.0526 21.3447C41.0877 21.2859 41.1014 21.2164 41.0913 21.1484Z" fill="#003087"/>
<path d="M62.233 20.7657H59.9958C59.7182 20.7657 59.5504 21.0929 59.4923 21.7471C59.167 21.3201 58.7385 20.9855 58.2481 20.7758C57.7577 20.566 57.2222 20.4882 56.6934 20.5498C56.0062 20.5315 55.3231 20.6641 54.6912 20.9385C54.0593 21.213 53.4935 21.6227 53.0327 22.1396C52.0616 23.1574 51.5257 24.522 51.5412 25.9376C51.5162 26.4506 51.5933 26.9635 51.768 27.4457C51.9427 27.9279 52.2114 28.3695 52.5581 28.7443C52.9178 29.0999 53.3459 29.3767 53.8158 29.5573C54.2857 29.738 54.7872 29.8187 55.2891 29.7944C55.8878 29.7877 56.4797 29.6645 57.0324 29.4313C57.5668 29.2249 58.0426 28.8877 58.4173 28.4499C58.4025 28.5392 58.3831 28.6276 58.3592 28.7149C58.3262 28.8333 58.3067 28.9551 58.301 29.078C58.301 29.3985 58.4302 29.5588 58.6884 29.5588H60.7803C60.8602 29.5669 60.9409 29.5584 61.0175 29.5338C61.0941 29.5092 61.1649 29.469 61.2256 29.4158C61.2864 29.3625 61.3357 29.2972 61.3707 29.2239C61.4057 29.1507 61.4256 29.071 61.4292 28.9896L62.6397 21.1877C62.6505 21.129 62.6483 21.0686 62.6332 21.0109C62.6182 20.9532 62.5906 20.8996 62.5525 20.854C62.5098 20.815 62.4586 20.7867 62.4031 20.7714C62.3476 20.756 62.2893 20.7541 62.233 20.7657ZM58.3592 26.654C58.1223 26.8953 57.8398 27.0857 57.5286 27.2138C57.2175 27.342 56.884 27.4052 56.5481 27.3998C56.0432 27.4222 55.5486 27.2504 55.1633 26.9189C54.9844 26.753 54.8439 26.5491 54.7518 26.3218C54.6597 26.0945 54.6183 25.8493 54.6306 25.6039C54.6236 25.2589 54.6851 24.9161 54.8115 24.5958C54.938 24.2754 55.1268 23.9841 55.3666 23.7393C55.6027 23.4901 55.8874 23.2934 56.2024 23.1617C56.5175 23.0299 56.8562 22.9659 57.197 22.9738C57.7002 22.9547 58.1918 23.1301 58.5722 23.4645C58.7561 23.6374 58.9001 23.8493 58.9938 24.0851C59.0876 24.3209 59.1288 24.5748 59.1145 24.8286C59.1244 25.1672 59.0649 25.5042 58.9399 25.8183C58.8149 26.1325 58.6271 26.417 58.3882 26.654H58.3592Z" fill="#009CDE"/>
<path d="M28.7241 20.7659H26.487C26.2093 20.7659 26.0415 21.0931 25.9834 21.7473C25.6551 21.3239 25.226 20.992 24.7365 20.7825C24.2469 20.5731 23.7129 20.4931 23.1845 20.55C22.5039 20.5413 21.8293 20.6804 21.2062 20.958C20.5831 21.2356 20.0259 21.6453 19.5722 22.1595C18.6012 23.1772 18.0653 24.5419 18.0808 25.9574C18.0557 26.4704 18.1329 26.9833 18.3076 27.4656C18.4823 27.9478 18.751 28.3894 19.0977 28.7641C19.457 29.1202 19.8851 29.3973 20.355 29.578C20.825 29.7587 21.3267 29.8391 21.8287 29.8142C22.4178 29.8055 22.9997 29.6823 23.5429 29.4511C24.083 29.2397 24.5671 28.9037 24.9568 28.4697C24.8855 28.6715 24.8462 28.8835 24.8406 29.0978C24.8406 29.4184 24.9697 29.5787 25.228 29.5787H27.2617C27.3417 29.5868 27.4224 29.5782 27.499 29.5536C27.5755 29.5291 27.6463 29.4889 27.7071 29.4356C27.7678 29.3823 27.8172 29.3171 27.8522 29.2438C27.8872 29.1705 27.907 29.0908 27.9106 29.0095L29.1212 21.2076C29.132 21.1489 29.1298 21.0885 29.1147 21.0308C29.0996 20.9731 29.0721 20.9195 29.034 20.8739C28.9941 20.8329 28.9453 20.8018 28.8916 20.783C28.8378 20.7643 28.7805 20.7584 28.7241 20.7659ZM24.8503 26.6542C24.6072 26.8946 24.3193 27.0835 24.0034 27.2098C23.6874 27.3362 23.3498 27.3975 23.0102 27.3902C22.5076 27.4171 22.0143 27.2446 21.635 26.9093C21.4607 26.7408 21.3245 26.5359 21.2359 26.3089C21.1473 26.0819 21.1083 25.8381 21.1217 25.5943C21.1141 25.2493 21.1754 24.9063 21.3019 24.5858C21.4284 24.2654 21.6174 23.9742 21.8578 23.7297C22.0939 23.4806 22.3785 23.2839 22.6936 23.1521C23.0087 23.0203 23.3474 22.9563 23.6881 22.9642C24.1914 22.9451 24.6829 23.1205 25.0633 23.4549C25.2472 23.6278 25.3912 23.8397 25.4849 24.0755C25.5787 24.3113 25.6199 24.5652 25.6057 24.819C25.6175 25.1593 25.5589 25.4983 25.4339 25.8144C25.3088 26.1304 25.1199 26.4165 24.8793 26.6542H24.8503Z" fill="#003087"/>
<path d="M51.1632 17.1347C50.2784 16.57 49.2444 16.2927 48.1998 16.3398H43.5124C43.432 16.3287 43.3501 16.335 43.2723 16.3584C43.1944 16.3819 43.1224 16.4219 43.061 16.4757C42.9996 16.5296 42.9502 16.5961 42.9162 16.6708C42.8821 16.7455 42.8642 16.8267 42.8636 16.909L40.9267 29.1075C40.9159 29.1662 40.9181 29.2266 40.9331 29.2843C40.9482 29.342 40.9758 29.3956 41.0138 29.4412C41.0474 29.4871 41.0912 29.5245 41.1417 29.55C41.1922 29.5756 41.2479 29.5888 41.3044 29.5884H43.7255C43.8381 29.5923 43.9483 29.5547 44.0356 29.4825C44.1229 29.4103 44.1813 29.3084 44.2 29.1958L44.7327 25.7316C44.7395 25.6558 44.7609 25.5821 44.7958 25.5148C44.8307 25.4474 44.8784 25.3877 44.9361 25.339C45.0643 25.2339 45.2183 25.1661 45.3816 25.1427C45.5491 25.1288 45.7176 25.1288 45.8851 25.1427H46.4469H46.8633C47.589 25.1838 48.3154 25.0764 48.9992 24.8268C49.6831 24.5773 50.3104 24.1908 50.8436 23.6903C51.3422 23.1548 51.7275 22.5216 51.9756 21.8297C52.2238 21.1377 52.3296 20.4016 52.2866 19.6667C52.3246 19.183 52.2415 18.6974 52.0452 18.2548C51.8488 17.8122 51.5455 17.427 51.1632 17.1347ZM48.1417 22.0416C47.5531 22.3799 46.88 22.5367 46.2047 22.493H45.2363L45.7399 19.2938C45.7435 19.2464 45.7565 19.2002 45.7781 19.1581C45.7997 19.1159 45.8295 19.0786 45.8656 19.0484C45.9018 19.0181 45.9436 18.9956 45.9886 18.9821C46.0335 18.9686 46.0807 18.9645 46.1273 18.9699H46.6599C47.0063 18.9641 47.3526 18.9837 47.6961 19.0288C47.9717 19.0791 48.2271 19.2086 48.4322 19.4017C48.5548 19.5175 48.6505 19.6594 48.7125 19.8173C48.7745 19.9751 48.8011 20.1449 48.7905 20.3144C48.8323 20.6357 48.7949 20.9625 48.6817 21.2656C48.5684 21.5687 48.3829 21.8387 48.1417 22.0514V22.0416Z" fill="#009CDE"/>
</svg>
