<svg width="14" height="14" viewBox="0 0 14 14" fill="none" xmlns="http://www.w3.org/2000/svg">
<path d="M12.7656 10.7969L10.7489 8.77684C10.3472 8.37615 9.68206 8.38832 9.26639 8.8048L8.25039 9.82216C8.1862 9.78673 8.11976 9.74972 8.0499 9.71045C7.40831 9.3544 6.53018 8.86638 5.60613 7.94021C4.67934 7.01208 4.19164 6.13123 3.83505 5.48822C3.79743 5.42009 3.76137 5.35441 3.72577 5.29204L4.40766 4.6101L4.7429 4.27392C5.15921 3.85685 5.17069 3.1908 4.76994 2.78895L2.75329 0.768682C2.35255 0.367387 1.68706 0.379561 1.27074 0.796637L0.702382 1.36916L0.717913 1.3846C0.527333 1.62816 0.368079 1.90907 0.249567 2.21199C0.140322 2.50034 0.0723058 2.77549 0.0412053 3.05121C-0.225081 5.26224 0.783716 7.28296 3.52146 10.025C7.30585 13.8151 10.3556 13.5288 10.4871 13.5148C10.7737 13.4805 11.0483 13.4119 11.3274 13.3034C11.6272 13.186 11.9075 13.0268 12.1505 12.8363L12.1629 12.8474L12.7387 12.2826C13.1542 11.8656 13.1661 11.1994 12.7656 10.7969Z" fill="white"/>
</svg>
