<svg width="22" height="18" viewBox="0 0 22 18" fill="none" xmlns="http://www.w3.org/2000/svg">
<path d="M21.8061 2.63086C21.0237 2.97459 20.19 3.20243 19.3208 3.31306C20.215 2.77836 20.8974 1.93812 21.2183 0.92535C20.3846 1.42317 19.4642 1.77481 18.4832 1.97104C17.6916 1.12685 16.5634 0.604004 15.3326 0.604004C12.9447 0.604004 11.0223 2.54525 11.0223 4.92506C11.0223 5.26748 11.0512 5.59673 11.1222 5.91017C7.53638 5.73501 4.36344 4.0137 2.23193 1.39157C1.8598 2.03821 1.64152 2.77836 1.64152 3.57514C1.64152 5.07125 2.41076 6.39746 3.55738 7.16527C2.86441 7.1521 2.18459 6.9506 1.60865 6.6332C1.60865 6.64637 1.60865 6.66349 1.60865 6.68061C1.60865 8.7799 3.10373 10.5236 5.0643 10.9253C4.71321 11.0214 4.33057 11.0675 3.93345 11.0675C3.65732 11.0675 3.37855 11.0517 3.11688 10.9938C3.67573 12.7045 5.26154 13.9623 7.14716 14.0031C5.67969 15.1528 3.81643 15.8456 1.79931 15.8456C1.4456 15.8456 1.10634 15.8298 0.76709 15.7863C2.67769 17.0203 4.94201 17.7249 7.38385 17.7249C15.3208 17.7249 19.6601 11.14 19.6601 5.4321C19.6601 5.24114 19.6535 5.05676 19.6443 4.8737C20.5003 4.26525 21.2196 3.50534 21.8061 2.63086Z" fill="white"/>
</svg>
