<svg width="76" height="49" viewBox="0 0 76 49" fill="none" xmlns="http://www.w3.org/2000/svg">
<path d="M70.7364 0H4.90087C2.29074 0 0.174805 2.14416 0.174805 4.7891V44.2109C0.174805 46.8558 2.29074 49 4.90087 49H70.7364C73.3465 49 75.4624 46.8558 75.4624 44.2109V4.7891C75.4624 2.14416 73.3465 0 70.7364 0Z" fill="#E6E7E8"/>
<path d="M29.3257 33.2684L32.231 15.8687H36.9086L34.0033 33.2684H29.3257Z" fill="#263A93"/>
<path d="M50.9125 16.2515C49.5681 15.7601 48.1483 15.5142 46.7191 15.5253C42.0996 15.5253 38.8359 17.8805 38.8069 21.2663C38.8069 23.7688 41.1312 25.1918 42.9035 25.9965C44.6757 26.8012 45.3343 27.3901 45.3246 28.1555C45.3246 29.3234 43.8719 29.8533 42.5258 29.8533C41.007 29.899 39.4986 29.5865 38.1193 28.9406L37.5189 28.6659L36.8604 32.5913C38.5278 33.2164 40.2927 33.5322 42.0705 33.5237C46.9903 33.5237 50.1862 31.188 50.2152 27.5765C50.2152 25.6138 48.9853 24.0926 46.2833 22.8463C44.6467 22.0416 43.6491 21.5018 43.6588 20.6873C43.6685 19.8727 44.5111 19.1956 46.3414 19.1956C47.5431 19.1682 48.7372 19.3955 49.8472 19.8629L50.2636 20.0592L50.8932 16.2907" fill="#263A93"/>
<path d="M62.9789 15.859H59.3666C58.8584 15.7921 58.3425 15.8973 57.8994 16.1582C57.4563 16.4191 57.1107 16.8211 56.9164 17.3016L49.9629 33.2489H54.8729C54.8729 33.2489 55.6768 31.1095 55.8414 30.6385H61.8361C61.9717 31.2469 62.4075 33.2489 62.4075 33.2489H66.7462L62.9789 15.859ZM57.1682 27.1055L59.0373 22.1987C59.0373 22.1987 59.4247 21.2173 59.6571 20.5401L59.9767 22.0416L61.0614 27.0663H57.1876L57.1682 27.1055Z" fill="#263A93"/>
<path d="M25.3545 15.8589L20.7737 27.7237L20.2895 25.3095C19.1048 22.1416 16.7937 19.5372 13.8105 18.0081L18.004 33.2194H22.9527L30.313 15.8589H25.3545Z" fill="#263A93"/>
<path d="M16.4935 15.8587H8.94922L8.89111 16.2218C14.76 17.6644 18.6434 21.1287 20.2608 25.3191L18.6241 17.3209C18.5072 16.8551 18.2257 16.449 17.833 16.1794C17.4403 15.9099 16.9637 15.7958 16.4935 15.8587Z" fill="#F2AE14"/>
</svg>
