<svg width="19" height="12" viewBox="0 0 19 12" fill="none" xmlns="http://www.w3.org/2000/svg">
<path d="M9.26422 0C11.1093 0.0684594 12.9547 0.130768 14.799 0.209924C15.2338 0.228644 15.6695 0.283732 16.0982 0.357005C17.1383 0.534572 17.8073 1.20606 18.0043 2.25034C18.2747 3.68237 18.329 5.13045 18.2778 6.57852C18.2421 7.59098 18.1398 8.60236 18.0364 9.61133C17.9607 10.3505 17.6456 10.9795 16.9606 11.3998C16.5423 11.6566 16.0707 11.7309 15.592 11.779C13.7339 11.9654 11.868 12.0079 10.0029 11.9989C8.1255 11.9898 6.24807 11.936 4.37148 11.8782C3.76853 11.8598 3.1653 11.786 2.56741 11.7028C1.54198 11.56 0.841767 10.8901 0.629821 9.8841C0.418156 8.87914 0.368403 7.85893 0.337482 6.83872C0.296442 5.49654 0.340293 4.15597 0.51907 2.82235C0.559266 2.5231 0.612674 2.22306 0.691662 1.93131C0.933966 1.03572 1.70304 0.432418 2.72173 0.311009C4.47745 0.101352 6.24329 0.0837024 8.00857 0.0553559C8.42656 0.0486704 8.84455 0.0542862 9.26254 0.0542862C9.2631 0.0363691 9.26366 0.0181845 9.26422 0ZM7.52874 3.46924C7.52874 5.18473 7.52874 6.87188 7.52874 8.58364C9.08882 7.72896 10.6298 6.88445 12.1958 6.0263C10.6298 5.16842 9.09191 4.32578 7.52874 3.46924Z" fill="white"/>
</svg>
